Coordinates
version=1
nRows=9
nColumns=36
inDegrees=yes

Units are S.I. units (second, meters, Newtons, ...)
If the header above contains a line with 'inDegrees', this indicates whether rotational values are in degrees (yes) or radians (no).

endheader
time	pelvis_tilt	pelvis_list	pelvis_rotation	pelvis_tx	pelvis_ty	pelvis_tz	hip_flexion_r	hip_adduction_r	hip_rotation_r	knee_angle_r	knee_angle_r_beta	ankle_angle_r	subtalar_angle_r	mtp_angle_r	hip_flexion_l	hip_adduction_l	hip_rotation_l	knee_angle_l	knee_angle_l_beta	ankle_angle_l	subtalar_angle_l	mtp_angle_l	lumbar_extension	lumbar_bending	lumbar_rotation	arm_flex_r	arm_add_r	arm_rot_r	elbow_flex_r	pro_sup_r	arm_flex_l	arm_add_l	arm_rot_l	elbow_flex_l	pro_sup_l
      0.00000000	     -4.49159074	     -0.78514834	     -4.77935793	      0.77166413	      1.30908683	      0.07985723	      0.70748292	      0.31443905	      3.59405946	      0.32086198	      0.00560010	      1.97084754	    -10.95642711	     -5.65097686	     -0.17286244	     -0.87009242	      2.28987609	      1.49510866	      0.02609457	      6.99505766	     -4.83627692	     -5.65097686	      1.01492999	      2.01035995	      1.60905587	      4.56357754	     -9.50590725	      6.23561843	     16.66256561	     92.54302528	      0.64715319	     -7.20753097	     -1.31200838	     17.12000414	     94.04644982
      0.01666670	     -5.16023791	     -0.84766127	     -5.55614191	      0.77140912	      1.30394008	      0.08064751	      1.35469446	      0.58332150	      4.83667343	      0.22285754	      0.00388960	      3.97543911	    -10.37788763	     -6.62824065	      0.05183485	     -0.86200466	      2.38697032	      1.03317940	      0.01803238	      7.07644832	     -4.79959698	     -6.62824065	      1.53414532	      2.33668701	      2.29665582	      4.72937128	     -9.51992776	      6.59994691	     15.99090653	     96.36086142	      0.19972740	     -6.84378934	     -1.35697126	     17.12649131	     96.79308816
      0.03333330	     -4.64607713	     -1.02441568	     -5.46484623	      0.77103463	      1.30620077	      0.08046026	      0.83335247	      0.79621832	      5.00567355	      0.23516951	      0.00410448	      4.54722152	    -10.27650446	     -6.80401364	     -0.71702541	     -0.91543083	      3.30587811	      0.81350555	      0.01419835	      6.77000171	     -5.41327611	     -6.80401364	      0.37311214	      2.63222388	      2.12115830	      5.13665469	     -9.70092774	      8.31900262	     15.91306804	     95.68857351	      0.76085585	     -6.89891480	      0.62611240	     16.68705484	     96.18824011
      0.05000000	     -4.23466742	     -1.10648275	     -4.96026089	      0.76931172	      1.30865003	      0.07975461	      0.41216126	      0.80894643	      4.19228300	      0.26855740	      0.00468721	      5.01411809	    -10.00409354	     -6.86322510	     -1.00000341	     -0.91868011	      3.49264755	      0.79394974	      0.01385704	      7.07433192	     -5.41673881	     -6.86322510	     -0.69474734	      2.70480362	      1.61720114	      5.63682813	     -9.72967579	      8.52125305	     16.28900005	     94.43359103	      1.17307709	     -6.90554838	      0.93165374	     16.73608967	     95.02130590
      0.06666670	     -3.70138532	     -1.10858573	     -4.85715435	      0.76243195	      1.30728372	      0.08230384	     -0.04154438	      0.79883197	      3.70277019	      0.33340664	      0.00581904	      5.65564912	     -9.42408585	     -7.15229868	     -1.44848627	     -0.84206548	      3.76203500	      0.88319663	      0.01541469	      7.27795458	     -5.37639663	     -7.15229868	     -1.92659122	      2.64827247	      1.42286575	      6.22607334	     -9.69912918	      8.99803575	     16.55610544	     97.35587621	      1.72385518	     -7.14910339	      1.49769497	     16.90678254	     98.77189163
      0.08333330	     -3.24388273	     -1.01309641	     -4.82240230	      0.76098035	      1.31035981	      0.08234784	     -0.40213721	      0.65010649	      3.20910340	      0.43471598	      0.00758723	      5.90155556	     -9.16586404	     -7.19142593	     -1.79087889	     -0.72716921	      3.68780972	      0.98294420	      0.01715561	      7.31309258	     -5.11693544	     -7.19142593	     -3.06851751	      2.45307163	      1.32241597	      6.89285770	     -9.57205457	      9.30594714	     16.76980597	     95.70141579	      2.23991771	     -7.29292770	      1.90690951	     16.91982524	     97.24011203
      0.10000000	     -2.80696300	     -0.86349487	     -4.85566521	      0.76668119	      1.30834157	      0.07984612	     -0.81585901	      0.39244492	      2.75408407	      0.56478978	      0.00985744	      6.13578349	     -8.99955389	     -7.28206495	     -2.20708735	     -0.53914434	      3.67967755	      1.02910489	      0.01796127	      7.28153547	     -5.06929080	     -7.28206495	     -3.85674959	      2.25886484	      1.32161410	      7.21237133	     -9.70590035	     10.94945154	     17.03507652	     95.60889582	      2.56021099	     -7.60241516	      4.05139211	     16.85751727	     98.00945155
      0.11666670	     -2.28828425	     -0.69728887	     -4.84023102	      0.76440248	      1.30886816	      0.08004707	     -1.26170525	      0.13191568	      2.42621211	      0.76780816	      0.01340078	      6.42650445	     -8.98429498	     -7.28728710	     -2.64862989	     -0.33431240	      3.46376226	      1.11088456	      0.01938859	      7.27183894	     -4.87229294	     -7.28728710	     -4.82571656	      2.00064759	      1.23664850	      7.55214360	     -9.64631792	     10.93132339	     17.30520825	     95.69601935	      2.86742580	     -7.72374691	      4.13191523	     16.97272918	     98.23359864
      0.13333330	     -1.73569254	     -0.53405142	     -4.81956845	      0.76301403	      1.30980270	      0.07988877	     -1.68802979	     -0.11126243	      2.10663864	      1.06907592	      0.01865889	      6.90516962	     -8.77240944	     -7.44570519	     -3.03230899	     -0.13983039	      3.01613471	      1.22020995	      0.02129668	      7.45741162	     -4.55135297	     -7.44570519	     -5.86727516	      1.70073404	      1.35755758	      7.74255538	     -9.66925097	     10.68159724	     17.70714346	     96.41683064	      3.35313665	     -7.85769902	      4.51571721	     17.07971924	    100.32458279
